PathFileType	4	(X/Y/Z)	D:\Share\Shared_Data\Ergonomics\Sit To Stand Pertubation\S1\Unperturbed_NoHarness.trc
DataRate	CameraRate	NumFrames	NumMarkers	Units	OrigDataRate	OrigDataStartFrame	OrigNumFrames	
100	100	11	18	m	100	2111	241
Frame#	Time	R_Thigh_Med			R_ASIS			R_Pelvis			V_Sacral			L_Pelvis			L_ASIS			Clavical			R_Acromium			L_Acromium			Sternum			Torso			R_Thigh_Lat			R_Thigh			R_Shank_Med			R_Shank_Lat			R_Shank			R_Heel			R_Toe			
		X1	Y1	Z1	X2	Y2	Z2	X3	Y3	Z3	X4	Y4	Z4	X5	Y5	Z5	X6	Y6	Z6	X7	Y7	Z7	X8	Y8	Z8	X9	Y9	Z9	X10	Y10	Z10	X11	Y11	Z11	X12	Y12	Z12	X13	Y13	Z13	X14	Y14	Z14	X15	Y15	Z15	X16	Y16	Z16	X17	Y17	Z17	X18	Y18	Z18	

2111	21.1	0.33355151	0.42005615	0.037413658	0.46349493	0.89576666	0.081906662	0.38221072	0.90644055	0.12327157	0.29686151	0.89884015	-0.030868933	0.39828326	0.90444818	-0.17899361	0.48409933	0.90385565	-0.11616829	0.43600168	1.2476798	-0.024178671	0.36191312	1.3162428	0.12470892	0.32496039	1.2690295	-0.2134826	0.41704337	1.2619368	0.079121346	0.43046381	1.2560259	-0.083204254	0.35396509	0.43993219	0.15492738	0.45014459	0.59844476	0.09445295	0.3146586	0.10185007	0.072023499	0.29062561	0.10020143	0.15152142	0.31417007	0.31103824	0.17175186	0.24417789	0.032536606	0.092185646	0.44781006	0.04519566	0.12243709
2112	21.11	0.33361288	0.42003708	0.037336903	0.46362628	0.89574017	0.081730865	0.38236197	0.90645984	0.12306178	0.29707108	0.8988811	-0.031091661	0.39855453	0.90443665	-0.17918227	0.48433319	0.9037937	-0.1163195	0.4361832	1.247575	-0.024150124	0.36196524	1.3162074	0.1246024	0.32543802	1.2690643	-0.21359914	0.41712332	1.2618661	0.079058044	0.43072659	1.2560089	-0.083233032	0.35400137	0.43996417	0.15483897	0.45019345	0.59843805	0.094345467	0.31467563	0.10186039	0.07203598	0.29062311	0.10023825	0.15153326	0.31419693	0.31107568	0.17168739	0.2441795	0.032547264	0.092185616	0.44764709	0.045196445	0.12246114
2113	21.12	0.33367346	0.42002325	0.037257751	0.46376642	0.89571454	0.081558922	0.38253052	0.90648022	0.1228624	0.29728491	0.89892969	-0.031297333	0.39882266	0.90442822	-0.17936227	0.48456714	0.903729	-0.11646729	0.43636481	1.247525	-0.02412174	0.36203778	1.3161748	0.12449675	0.32592401	1.2691292	-0.21380286	0.41722119	1.2618004	0.078995872	0.43101044	1.2559918	-0.083263626	0.35403201	0.43999661	0.15475987	0.45024173	0.59843237	0.094244141	0.3146904	0.10187016	0.072042938	0.29061725	0.10027783	0.15154391	0.31421912	0.31111081	0.17162277	0.24418158	0.032558422	0.092183914	0.44749155	0.045208874	0.1224848
2114	21.13	0.33373221	0.42001428	0.037178493	0.46391714	0.89568793	0.081395042	0.38271042	0.90649707	0.12267804	0.29750497	0.89898499	-0.031489231	0.39909116	0.9044223	-0.17953128	0.48480423	0.90365906	-0.116606	0.43656195	1.2475034	-0.024115696	0.36213071	1.3161428	0.12439153	0.32641806	1.2692217	-0.21415823	0.41733344	1.2617405	0.078935768	0.43130927	1.2559741	-0.08329686	0.3540603	0.44002829	0.15468979	0.4502923	0.59842572	0.094148186	0.31470331	0.1018789	0.072043343	0.29061212	0.10031779	0.1515519	0.31424127	0.31114227	0.17155876	0.24418428	0.032570145	0.092181213	0.44734946	0.045234879	0.12250652
2115	21.14	0.33378912	0.42000983	0.037101677	0.46407996	0.895659	0.081242973	0.38289542	0.906508	0.12251218	0.29773245	0.89904565	-0.03167161	0.39936292	0.90441791	-0.179687	0.48504691	0.90358252	-0.11673068	0.43678339	1.2474895	-0.024143097	0.36224335	1.3161099	0.12428643	0.32692279	1.2693328	-0.21474275	0.41745706	1.2616866	0.078878044	0.43161679	1.2559563	-0.083333199	0.35408972	0.44005859	0.15462787	0.45034821	0.59841656	0.094057152	0.31471552	0.10188665	0.072036491	0.29061121	0.10035583	0.15155618	0.31426779	0.31116968	0.17149651	0.24418797	0.032582954	0.092178238	0.44722699	0.0452696	0.12252454
2116	21.15	0.33384476	0.42000986	0.037029415	0.46425552	0.89562738	0.081105316	0.38308124	0.90651495	0.12236547	0.29796765	0.89910962	-0.0318475	0.39963998	0.90441467	-0.17982741	0.48529651	0.90350208	-0.11683849	0.43702841	1.2474711	-0.024205564	0.36237445	1.3160764	0.12418133	0.32744254	1.2694497	-0.21563556	0.41759045	1.261639	0.078822189	0.4319278	1.2559382	-0.083372772	0.35412329	0.4400882	0.15457355	0.45041205	0.59840417	0.093970741	0.31472855	0.10189406	0.072022324	0.29061685	0.10039032	0.15155618	0.31430142	0.31119388	0.17143712	0.24419308	0.032597374	0.092175484	0.44713077	0.045303436	0.12253712
2117	21.16	0.33390024	0.42001495	0.036962963	0.46444345	0.89559418	0.080983208	0.38326691	0.90652283	0.12223576	0.2982103	0.89917358	-0.032016872	0.39992303	0.90441211	-0.17995135	0.48555322	0.90342371	-0.1169292	0.43728891	1.2474432	-0.024301552	0.36252243	1.3160436	0.12407641	0.32798389	1.2695541	-0.21689322	0.41773312	1.261597	0.078767113	0.43223819	1.2559199	-0.083415466	0.35416345	0.44011948	0.15452745	0.45048529	0.59838849	0.093889061	0.31474426	0.10190208	0.07200177	0.29062997	0.10042096	0.15155183	0.31434296	0.31121664	0.17138148	0.24420001	0.032613777	0.092172897	0.44706616	0.045326752	0.12254353
2118	21.17	0.33395712	0.42002588	0.036902618	0.46464279	0.89556152	0.080876427	0.3834538	0.90653638	0.12212025	0.2984599	0.89923474	-0.032176575	0.40021097	0.9044104	-0.18005914	0.48581595	0.90335339	-0.11700435	0.43755322	1.247406	-0.024428144	0.36268521	1.316014	0.12397207	0.32855655	1.2696218	-0.21850914	0.41788547	1.2615616	0.078711678	0.43254523	1.2559006	-0.083461449	0.35421146	0.44015555	0.15449156	0.45056848	0.59837054	0.093812874	0.31476443	0.10191189	0.071976555	0.29065021	0.10044875	0.15154338	0.3143909	0.31124042	0.17133041	0.24420892	0.032632404	0.092170189	0.4470351	0.045334309	0.12254486
2119	21.18	0.33401718	0.42004327	0.036848148	0.46485208	0.89553204	0.080783943	0.38364456	0.90655792	0.12201717	0.29871649	0.8992926	-0.03232196	0.40050232	0.9044101	-0.18015254	0.48608316	0.90329358	-0.11706606	0.43780835	1.2473657	-0.024574463	0.36286044	1.315991	0.12386871	0.32917325	1.2696226	-0.22035484	0.41804797	1.2615341	0.078654938	0.43284671	1.2558782	-0.083511284	0.35426685	0.44019861	0.15446786	0.45066153	0.5983512	0.093743828	0.31479071	0.10192448	0.071948654	0.2906759	0.1004758	0.15153096	0.31444217	0.31126773	0.17128413	0.24421971	0.03265321	0.092166992	0.44703586	0.04532579	0.12254312
2120	21.19	0.33408228	0.42006714	0.036799137	0.46507007	0.89550787	0.080704605	0.38384277	0.90658698	0.12192619	0.2989808	0.89934875	-0.032448963	0.40079672	0.90441156	-0.18023373	0.48635461	0.90324298	-0.11711615	0.43804297	1.2473313	-0.024719833	0.36304535	1.3159769	0.1237666	0.32984644	1.2695177	-0.22214885	0.41822086	1.261516	0.078596275	0.43314038	1.2558518	-0.083565582	0.35432669	0.44024866	0.15445682	0.45076395	0.59833142	0.093684341	0.31482422	0.10194042	0.071919708	0.29070438	0.10050479	0.15151434	0.31449219	0.31130087	0.17124217	0.24423215	0.032675594	0.092163055	0.44706485	0.045303402	0.12253948
2121	21.2	0.33415417	0.42009689	0.036754913	0.46529596	0.89548987	0.080637856	0.38405212	0.90662103	0.12184798	0.29925397	0.89940625	-0.032555397	0.40109518	0.90441498	-0.18030449	0.48663126	0.90319696	-0.11715565	0.43825101	1.2473112	-0.024843637	0.36323737	1.3159746	0.1236661	0.33058218	1.2692709	-0.22354726	0.41840375	1.2615076	0.078535469	0.43342337	1.2558219	-0.083624283	0.35438568	0.44030295	0.1544558	0.45087442	0.59831238	0.09363739	0.31486539	0.10195969	0.071890793	0.29073218	0.10053837	0.15149286	0.31453552	0.31134113	0.17120316	0.24424594	0.03269854	0.092158432	0.44711896	0.045270744	0.12253384
